<?xml version="1.0" encoding="utf-8"?>
<!--
  - Copyright (c) 2020, 2025, Oracle and/or its affiliates.
  - Licensed under the Universal Permissive License v 1.0 as shown at
  - http://oss.oracle.com/licenses/upl.
  -->

<!-- Generator: Adobe Illustrator 24.0.1, SVG Export Plug-In . SVG Version: 6.00 Build 0)  -->
<svg version="1.1" id="Layer_1" xmlns="http://www.w3.org/2000/svg" xmlns:xlink="http://www.w3.org/1999/xlink" x="0px" y="0px"
	 viewBox="0 0 180 180" style="enable-background:new 0 0 180 180;" xml:space="preserve">
<style type="text/css">
	.st0{fill:#FB013D;}
</style>
<g>
	<g>
		<g>
			<g>
				<path class="st0" d="M84.5,5.5L30.3,36.8v20.7L90,23l59.7,34.5V36.8L95.4,5.5C92,3.5,87.9,3.5,84.5,5.5z"/>
			</g>
		</g>
	</g>
	<g>
		<path class="st0" d="M118.2,117c-0.8-1-1.7-1.8-2.5-2.5c-1.8-1.3-3.6-2.2-5.4-3c0,0-34-14.3-35.2-14.8
			c-36.4-15.9,8.7-20.9,12.2-21.1c9.1-0.4,15.5,0.6,15.7,0.6c3.6,0,6.5-2.9,6.5-6.5c0-3.4-2.6-6.1-5.8-6.5l0,0
			c-1.4-0.2-3.3-0.4-4.8-0.6c-4-0.4-8-0.5-12-0.4c-8,0.3-16,1.4-23.9,4.1c-3.9,1.4-7.9,3-11.7,5.8c-1.9,1.4-3.8,3-5.5,5.5
			c-0.8,1.2-1.5,2.7-1.9,4.3c-0.4,1.7-0.5,3.5-0.1,5.2c0.3,1.7,1,3.2,1.8,4.5c0.8,1.2,1.7,2.3,2.6,3.2c1.9,1.8,3.6,2.9,5.8,4.1
			c4.1,2.2,35.4,14,35.9,14.2c33.6,11.5,17.4,14.7,10.9,16.1c-0.2,0-0.4,0.1-0.7,0.1c-0.6,0.1-1,0.2-1.6,0.3
			c-2.7,0.5-9.3,0.8-9.3,0.8c-1.4,0-2.6,1.1-2.6,2.6c0,1.4,1.1,2.6,2.6,2.6c0.1,0,8.3,0,11.9-0.5c3.6-0.5,7.2-1.3,10.9-2.8
			c1.8-0.8,3.6-1.8,5.3-3.4c0.8-0.8,1.7-1.8,2.3-3.2c0.6-1.3,0.8-3,0.5-4.6C119.7,119.3,119,118.1,118.2,117z"/>
	</g>
	<g>
		<path class="st0" d="M101.3,102.2c0,0.7,0.6,1.3,1.3,1.3c0.7,0,1.3-0.6,1.3-1.3c0-0.7-0.6-1.3-1.3-1.3
			C101.9,100.9,101.3,101.5,101.3,102.2z"/>
	</g>
	<g>
		<path class="st0" d="M97.8,103.8c0,0.5,0.4,0.9,0.9,0.9c0.5,0,0.9-0.4,0.9-0.9c0-0.5-0.4-0.9-0.9-0.9
			C98.2,102.9,97.8,103.3,97.8,103.8z"/>
	</g>
	<g>
		<path class="st0" d="M79.4,111.7c0-0.5-0.4-0.8-0.8-0.8c-0.5,0-0.8,0.4-0.8,0.8c0,0.5,0.4,0.8,0.8,0.8
			C79,112.6,79.4,112.2,79.4,111.7z"/>
	</g>
	<g>
		<path class="st0" d="M74.4,112.1c-0.9,0-1.6,0.7-1.6,1.6c0,0.9,0.7,1.6,1.6,1.6c0.9,0,1.6-0.7,1.6-1.6
			C75.9,112.8,75.2,112.1,74.4,112.1z"/>
	</g>
	<g>
		<path class="st0" d="M71.2,116c0-0.9-0.7-1.6-1.6-1.6c-0.9,0-1.6,0.7-1.6,1.6s0.7,1.6,1.6,1.6C70.5,117.6,71.2,116.9,71.2,116z"/>
	</g>
	<g>
		<path class="st0" d="M66.3,119.5c0-0.9-0.7-1.6-1.6-1.6c-0.9,0-1.6,0.7-1.6,1.6s0.7,1.6,1.6,1.6C65.6,121.1,66.3,120.4,66.3,119.5
			z"/>
	</g>
	<g>
		<path class="st0" d="M64.8,123.8c-0.9,0-1.6,0.7-1.6,1.6c0,0.9,0.7,1.6,1.6,1.6c0.9,0,1.6-0.7,1.6-1.6
			C66.4,124.5,65.7,123.8,64.8,123.8z"/>
	</g>
	<g>
		<path class="st0" d="M70.1,127.3c-1.3,0-2.3,1-2.3,2.3s1,2.3,2.3,2.3c1.3,0,2.3-1,2.3-2.3S71.3,127.3,70.1,127.3z"/>
	</g>
	<g>
		<circle class="st0" cx="76.6" cy="131.5" r="2.3"/>
	</g>
	<g>
		<path class="st0" d="M107,99.2c-0.9,0-1.7,0.7-1.7,1.7c0,0.9,0.7,1.7,1.7,1.7s1.7-0.7,1.7-1.7C108.7,100,108,99.2,107,99.2z"/>
	</g>
	<g>
		<circle class="st0" cx="113.8" cy="98.5" r="3"/>
	</g>
	<g>
		<path class="st0" d="M123.4,90.5c-2.2,0-4,1.8-4,4c0,2.2,1.8,4,4,4c2.2,0,4-1.8,4-4C127.4,92.3,125.6,90.5,123.4,90.5z"/>
	</g>
	<g>
		<path class="st0" d="M131.5,80.1c-2.7,0-5,2.2-5,5c0,2.7,2.2,5,5,5c2.7,0,5-2.2,5-5C136.4,82.3,134.2,80.1,131.5,80.1z"/>
	</g>
	<g>
		<path class="st0" d="M120,79.9c3.2,0,5.9-2.6,5.9-5.9c0-3.2-2.6-5.9-5.9-5.9c-3.2,0-5.9,2.6-5.9,5.9
			C114.1,77.3,116.8,79.9,120,79.9z"/>
	</g>
	<g>
		<circle class="st0" cx="82.9" cy="132.5" r="2.3"/>
	</g>
	<g>
		<path class="st0" d="M169.7,135.4l-0.1-62.6l-16.9-9.7l0.1,68.9l-59.6,34.5l16.9,9.7l54.2-31.4
			C167.6,142.9,169.7,139.3,169.7,135.4z"/>
	</g>
	<g>
		<path class="st0" d="M10.3,135.4l0.1-62.6l16.9-9.7L27.1,132l59.6,34.5l-16.9,9.7l-54.2-31.4C12.4,142.9,10.3,139.3,10.3,135.4z"
			/>
	</g>
</g>
</svg>
